<svg xmlns="http://www.w3.org/2000/svg" width="120" height="120" viewBox="0 0 120 120" fill="none">
  <defs>
    <linearGradient id="wfL" x1="0" x2="0" y1="0" y2="1"><stop offset="0%" stop-color="#FCEBC4"/><stop offset="100%" stop-color="#D9B16B"/></linearGradient>
    <linearGradient id="wfD" x1="0" x2="0" y1="0" y2="1"><stop offset="0%" stop-color="#C79A4E"/><stop offset="100%" stop-color="#8F6A33"/></linearGradient>
    <linearGradient id="wfBody" x1="0" x2="0" y1="0" y2="1"><stop offset="0%" stop-color="#343A41"/><stop offset="55%" stop-color="#262A30"/><stop offset="100%" stop-color="#1A1D22"/></linearGradient>
    <linearGradient id="wfPlate" x1="0" x2="0" y1="0" y2="1"><stop offset="0%" stop-color="#2B3037"/><stop offset="100%" stop-color="#15181C"/></linearGradient>
  </defs>
  <rect x="6" y="6" width="108" height="108" rx="26" fill="url(#wfPlate)" stroke="#FFFFFF" stroke-opacity="0.07"/>
  <rect x="6.5" y="6.5" width="107" height="54" rx="25.5" fill="#FFFFFF" fill-opacity="0.025"/>
  <path d="M16 45 Q16 31 30 31 H50.5 L59.5 40 H92 Q104 40 104 52 V92 Q104 106 90 106 H30 Q16 106 16 92 Z" fill="url(#wfBody)" stroke="#FFFFFF" stroke-opacity="0.10" stroke-width="1.2"/>
  <path d="M16 46 Q16 32 30 32 H50 L59 40.5 H92 Q103 41 103.6 51" fill="none" stroke="#FFF0D7" stroke-opacity="0.16" stroke-width="1.1" stroke-linecap="round"/>
  <circle cx="60" cy="74" r="23" fill="none" stroke="#5C636B" stroke-width="2" opacity="0.55"/>
  <g stroke="#5C636B" stroke-width="2" stroke-linecap="round" opacity="0.55">
    <line x1="60" y1="51" x2="60" y2="55.5"/>
    <line x1="76.26" y1="57.74" x2="74.28" y2="59.72"/>
    <line x1="83" y1="74" x2="78.5" y2="74"/>
    <line x1="76.26" y1="90.26" x2="74.28" y2="88.28"/>
    <line x1="60" y1="97" x2="60" y2="92.5"/>
    <line x1="43.74" y1="90.26" x2="45.72" y2="88.28"/>
    <line x1="37" y1="74" x2="41.5" y2="74"/>
    <line x1="43.74" y1="57.74" x2="45.72" y2="59.72"/>
  </g>
  <path d="M60 74 L55.8 69.8 L60 56 Z M60 74 L64.2 69.8 L74.5 74 Z M60 74 L64.2 78.2 L60 92 Z M60 74 L55.8 78.2 L45.5 74 Z" fill="url(#wfL)"/>
  <path d="M60 74 L60 56 L64.2 69.8 Z M60 74 L74.5 74 L64.2 78.2 Z M60 74 L60 92 L55.8 78.2 Z M60 74 L45.5 74 L55.8 69.8 Z" fill="url(#wfD)"/>
  <path d="M60 56 L64.2 69.8 L74.5 74 L64.2 78.2 L60 92 L55.8 78.2 L45.5 74 L55.8 69.8 Z" fill="none" stroke="#7A5C2E" stroke-width="1" stroke-linejoin="round" opacity="0.5"/>
  <circle cx="60" cy="74" r="2.1" fill="#3A2E16"/>
</svg>
